/* $XConsortium: DtTtsnp.t.bm /main/2 1995/07/17 17:20:32 drk $ */
#define DtTtsnoop.t.bm_width 16
#define DtTtsnoop.t.bm_height 16
#define DtTtsnoop.t.bm_x_hot 0
#define DtTtsnoop.t.bm_y_hot 0
static unsigned char DtTtsnoop.t.bm_bits[] = {
   0x00, 0x00, 0x00, 0x00, 0x00, 0x22, 0x3c, 0x00, 0x00, 0x00, 0x00, 0x00,
   0x10, 0x00, 0x10, 0x00, 0x10, 0x00, 0x10, 0x08, 0x10, 0x08, 0x00, 0x10,
   0x36, 0x10, 0x7e, 0x10, 0x80, 0x0f, 0x00, 0x00};
