/* $XConsortium: DtTtsnp.t_m.bm /main/2 1995/07/17 17:20:46 drk $ */
#define DtTtsnp.t_m.bm_width 16
#define DtTtsnp.t_m.bm_height 16
#define DtTtsnp.t_m.bm_x_hot 0
#define DtTtsnp.t_m.bm_y_hot 0
static unsigned char DtTtsnp.t_m.bm_bits[] = {
   0x00, 0x00, 0x00, 0x00, 0x3a, 0x22, 0x3e, 0x41, 0x1e, 0x41, 0x1e, 0x63,
   0x3e, 0x36, 0x5e, 0x14, 0xfe, 0x08, 0x18, 0x08, 0x18, 0x08, 0x00, 0x10,
   0x36, 0x10, 0x7e, 0x10, 0x80, 0x0f, 0x00, 0x00};
