/* $XConsortium: DtTtsnp.l_m.bm /main/2 1995/07/17 17:20:05 drk $ */
#define ttsnoop.l_m.bm_width 48
#define ttsnoop.l_m.bm_height 48
#define ttsnoop.l_m.bm_x_hot 0
#define ttsnoop.l_m.bm_y_hot 0
static unsigned char ttsnoop.l_m.bm_bits[] = {
   0x00, 0x00, 0x00, 0x00, 0x00, 0x00, 0x00, 0x00, 0x00, 0x00, 0x00, 0x00,
   0x00, 0x00, 0x00, 0x00, 0x00, 0x00, 0x00, 0x00, 0x00, 0x00, 0x00, 0x00,
   0x00, 0x00, 0x00, 0x00, 0x00, 0x00, 0x08, 0x00, 0x00, 0x1c, 0xe0, 0x00,
   0x38, 0xdf, 0x01, 0x0e, 0x80, 0x01, 0xf8, 0xff, 0x03, 0x0e, 0x00, 0x03,
   0xf8, 0xff, 0x03, 0x06, 0x00, 0x03, 0xf8, 0xff, 0x03, 0x07, 0x00, 0x03,
   0xf8, 0xff, 0x03, 0x07, 0x00, 0x06, 0xf8, 0x1f, 0x00, 0x03, 0x00, 0x06,
   0xf8, 0x1f, 0x00, 0x07, 0x00, 0x07, 0xf8, 0x1f, 0x00, 0x06, 0x00, 0x07,
   0xf8, 0x3f, 0x00, 0x06, 0x00, 0x03, 0xf8, 0x7e, 0x00, 0x0e, 0x80, 0x03,
   0xf8, 0xff, 0x00, 0x1c, 0xc0, 0x03, 0xf8, 0xff, 0x01, 0x38, 0xe0, 0x01,
   0xf8, 0xff, 0x03, 0x70, 0xf0, 0x00, 0xf8, 0xff, 0x07, 0x60, 0x78, 0x00,
   0xf8, 0xbf, 0x0f, 0xc0, 0x38, 0x00, 0xf8, 0x3f, 0x1f, 0xc0, 0x1d, 0x00,
   0xf8, 0xff, 0x3f, 0x80, 0x1d, 0x00, 0xf8, 0xff, 0x7f, 0x80, 0x0d, 0x00,
   0xf8, 0xff, 0xff, 0x80, 0x0f, 0x00, 0xf8, 0xff, 0xff, 0x01, 0x07, 0x00,
   0xf0, 0xff, 0xff, 0x00, 0x03, 0x00, 0x00, 0x3f, 0x00, 0x00, 0x03, 0x00,
   0x00, 0x3f, 0x00, 0x00, 0x03, 0x00, 0x00, 0x3f, 0x00, 0x00, 0x03, 0x00,
   0x00, 0x3f, 0x00, 0x00, 0x03, 0x00, 0x00, 0x1f, 0x00, 0x00, 0x06, 0x00,
   0x00, 0x00, 0x00, 0x00, 0x0c, 0x00, 0x00, 0x00, 0x00, 0x00, 0x08, 0x00,
   0x00, 0x00, 0x00, 0x00, 0x10, 0x00, 0x00, 0xfc, 0x00, 0x00, 0x10, 0x00,
   0x18, 0xfc, 0x00, 0x00, 0x10, 0x00, 0x78, 0x30, 0x00, 0x00, 0x20, 0x00,
   0xf8, 0xff, 0x07, 0x00, 0x20, 0x00, 0x78, 0x00, 0x18, 0x00, 0x20, 0x00,
   0x18, 0x00, 0x60, 0x00, 0x10, 0x00, 0x00, 0x00, 0x80, 0x00, 0x08, 0x00,
   0x00, 0x00, 0x00, 0x03, 0x06, 0x00, 0x00, 0x00, 0x00, 0xfc, 0x01, 0x00,
   0x00, 0x00, 0x00, 0x00, 0x00, 0x00, 0x00, 0x00, 0x00, 0x00, 0x00, 0x00,
   0x00, 0x00, 0x00, 0x00, 0x00, 0x00, 0x00, 0x00, 0x00, 0x00, 0x00, 0x00};
