/* $XConsortium: DtTtsnp.m_m.bm /main/2 1995/07/17 17:20:26 drk $ */
#define DtTtsnp.m_m.bm_width 32
#define DtTtsnp.m_m.bm_height 32
#define DtTtsnp.m_m.bm_x_hot 0
#define DtTtsnp.m_m.bm_y_hot 0
static unsigned char DtTtsnp.m_m.bm_bits[] = {
   0x00, 0x00, 0x00, 0x00, 0x00, 0x00, 0x00, 0x00, 0x00, 0x00, 0x00, 0x00,
   0x00, 0x00, 0x00, 0x00, 0xcc, 0x0d, 0x0e, 0x0e, 0xfc, 0x0f, 0x06, 0x08,
   0xfc, 0x0f, 0x03, 0x08, 0xfc, 0x0f, 0x03, 0x10, 0xfc, 0x01, 0x03, 0x18,
   0xfc, 0x01, 0x02, 0x18, 0xfc, 0x03, 0x06, 0x0c, 0xfc, 0x07, 0x0c, 0x0c,
   0xfc, 0x0f, 0x18, 0x07, 0xfc, 0x1f, 0x10, 0x03, 0xfc, 0x3b, 0xb0, 0x01,
   0xfc, 0x7f, 0xa0, 0x01, 0xfc, 0xff, 0xe0, 0x00, 0xfc, 0xff, 0xc1, 0x00,
   0xc0, 0x03, 0x40, 0x00, 0xc0, 0x03, 0x40, 0x00, 0xc0, 0x03, 0x40, 0x00,
   0xc0, 0x01, 0xc0, 0x00, 0x00, 0x00, 0x80, 0x00, 0x00, 0x00, 0x00, 0x01,
   0x8c, 0x07, 0x00, 0x01, 0x1c, 0x03, 0x00, 0x02, 0xfc, 0x3f, 0x00, 0x02,
   0x0c, 0xc0, 0x00, 0x01, 0x00, 0x00, 0xc3, 0x00, 0x00, 0x00, 0x3c, 0x00,
   0x00, 0x00, 0x00, 0x00, 0x00, 0x00, 0x00, 0x00};
