/* $XConsortium: copy_cursor.xbm /main/2 1995/07/17 18:08:42 drk $ */
#define copy_cursor_bm_width 16
#define copy_cursor_bm_height 16
static unsigned char copy_cursor_bm_bits[] = {
   0x03, 0x00, 0x0f, 0x00, 0x3e, 0x00, 0xfe, 0x00, 0xfc, 0x00, 0x7c, 0x3c,
   0xf8, 0x3e, 0xd8, 0xbb, 0x80, 0xb9, 0xc0, 0xb8, 0x60, 0xb8, 0xe0, 0xbf,
   0xe0, 0xbf, 0xe0, 0xbf, 0x00, 0x80, 0x80, 0xff};
