/* $XConsortium: ggp_col.xbm /main/2 1995/07/17 18:09:29 drk $ */
#define ggp_col_width 32
#define ggp_col_height 32
static unsigned char ggp_col_bits[] = {
 0x00,0x80,0x01,0x00,0x00,0x80,0x01,0x00,0x00,0x40,0x02,0x00,0x00,0x40,0x02,
 0x00,0x00,0x20,0x04,0x00,0x00,0x20,0x04,0x00,0x00,0x10,0x08,0x00,0x00,0xf0,
 0x0f,0x00,0x00,0x00,0x00,0x00,0x00,0xe0,0x03,0x00,0x00,0x10,0x04,0x00,0x00,
 0x08,0x08,0x00,0x00,0x04,0x10,0x00,0x00,0x02,0x20,0x00,0x00,0x02,0x20,0x00,
 0x00,0x02,0x20,0x00,0x00,0x02,0x20,0x00,0x00,0x02,0x20,0x00,0x00,0x04,0x10,
 0x00,0x00,0x08,0x08,0x00,0x00,0x10,0x04,0x00,0x00,0xe0,0x03,0x00,0x00,0x00,
 0x00,0x00,0x00,0xf0,0x0f,0x00,0x00,0x10,0x08,0x00,0x00,0x10,0x08,0x00,0x00,
 0x10,0x08,0x00,0x00,0x10,0x08,0x00,0x00,0x10,0x08,0x00,0x00,0x10,0x08,0x00,
 0x00,0x10,0x08,0x00,0x00,0xf0,0x0f,0x00};
