/* $XConsortium: move_cursor.xbm /main/2 1995/07/17 18:10:07 drk $ */
#define move_cursor_bm_width 16
#define move_cursor_bm_height 16
static unsigned char move_cursor_bm_bits[] = {
   0x03, 0x00, 0x0f, 0x00, 0x3e, 0x00, 0xfe, 0x00, 0xfc, 0x03, 0xfc, 0x03,
   0xf8, 0x00, 0xf8, 0xf1, 0xb0, 0xfb, 0x30, 0xef, 0x00, 0xe6, 0x00, 0xe3,
   0x80, 0xe1, 0x80, 0xff, 0x80, 0xff, 0x80, 0xff};
