/* $XConsortium: right_up_link.xbm /main/2 1995/07/17 18:10:21 drk $ */
#define right_up_link_width 16
#define right_up_link_height 16
#define right_up_link_x_hot 1
#define right_up_link_y_hot 14
static unsigned char right_up_link_bits[] = {
   0x00, 0x18, 0x00, 0x14, 0x00, 0x0a, 0xc0, 0xc5, 0xe0, 0xa2, 0xf0, 0x53,
   0xd8, 0x2f, 0xbc, 0x17, 0x6e, 0x1f, 0xde, 0x1b, 0xbe, 0x0d, 0xfc, 0x06,
   0x1c, 0x03, 0xfe, 0x01, 0xe7, 0x00, 0x03, 0x00};
