/* $XConsortium: integral.bm /main/2 1995/07/17 14:05:42 drk $ */
#define integral_width 214
#define integral_height 57
static char integral_bits[] = {
   0x00, 0x3c, 0x00, 0x00, 0x00, 0x00, 0x00, 0x00, 0x00, 0x00, 0x00, 0x00,
   0x00, 0x00, 0x00, 0x00, 0x00, 0x00, 0x00, 0x00, 0x00, 0x00, 0x00, 0x1e,
   0x00, 0x00, 0x00, 0x00, 0x72, 0x00, 0x00, 0x00, 0x00, 0x00, 0x00, 0x00,
   0x00, 0x00, 0x00, 0x00, 0x00, 0x00, 0x00, 0x00, 0x00, 0x00, 0x00, 0x00,
   0x00, 0x00, 0x39, 0x00, 0x00, 0x00, 0x00, 0x62, 0x00, 0x00, 0x00, 0x00,
   0x00, 0x00, 0x00, 0x00, 0x00, 0x00, 0x00, 0x00, 0x00, 0x00, 0x00, 0x00,
   0x00, 0x00, 0x00, 0x00, 0x00, 0x31, 0x00, 0x00, 0x00, 0x00, 0x03, 0x00,
   0x00, 0x00, 0x00, 0x00, 0x00, 0x00, 0x00, 0x00, 0x00, 0x00, 0x00, 0x00,
   0x00, 0x00, 0x00, 0x00, 0x00, 0x00, 0x00, 0x80, 0x01, 0x00, 0x00, 0x00,
   0x00, 0x03, 0x00, 0x00, 0x00, 0x00, 0x00, 0x00, 0x00, 0x00, 0x00, 0x00,
   0x00, 0x00, 0x00, 0x00, 0x00, 0x00, 0x00, 0x00, 0x00, 0x00, 0x80, 0x01,
   0x00, 0x00, 0x00, 0x00, 0x03, 0x00, 0x00, 0x00, 0x00, 0x00, 0x00, 0x00,
   0x00, 0x00, 0x00, 0x00, 0x00, 0x00, 0x00, 0x00, 0x00, 0x00, 0x00, 0x00,
   0x00, 0x80, 0x01, 0x00, 0x00, 0x00, 0x00, 0x03, 0x00, 0x00, 0x00, 0x00,
   0x00, 0x00, 0x00, 0x00, 0x00, 0x00, 0x00, 0x00, 0x00, 0x00, 0x00, 0x00,
   0x00, 0x00, 0x00, 0x00, 0x80, 0x01, 0x00, 0x00, 0x00, 0x00, 0x03, 0x00,
   0x00, 0x00, 0x00, 0x00, 0x00, 0x00, 0x00, 0x00, 0x00, 0x00, 0x00, 0x00,
   0x00, 0x00, 0x00, 0x00, 0x00, 0x00, 0x00, 0x80, 0x01, 0x00, 0x00, 0x00,
   0x00, 0x03, 0x00, 0x07, 0x00, 0x00, 0x00, 0x00, 0x00, 0x00, 0x00, 0x00,
   0x00, 0x00, 0x00, 0x00, 0x00, 0x00, 0x00, 0x00, 0x00, 0x00, 0x80, 0x01,
   0x00, 0x00, 0x00, 0x00, 0x03, 0x00, 0x06, 0x00, 0x00, 0x00, 0x00, 0x00,
   0x1e, 0x00, 0x00, 0x00, 0x00, 0x00, 0x70, 0x00, 0x00, 0x00, 0x80, 0x07,
   0x00, 0x80, 0x01, 0x80, 0x03, 0x00, 0x00, 0x03, 0x00, 0x02, 0x00, 0x00,
   0x00, 0x00, 0x00, 0x3f, 0x00, 0x00, 0x00, 0x00, 0x00, 0x60, 0x00, 0x00,
   0x00, 0xc0, 0x0f, 0x00, 0x80, 0x01, 0x00, 0x03, 0x00, 0x00, 0x03, 0x00,
   0x02, 0x00, 0x00, 0x00, 0x00, 0x00, 0x71, 0x00, 0x00, 0x00, 0x00, 0x00,
   0x20, 0x00, 0x00, 0x00, 0x40, 0x1c, 0x00, 0x80, 0x01, 0x00, 0x01, 0x00,
   0x00, 0x03, 0xe0, 0xe3, 0x18, 0x00, 0x00, 0x00, 0x80, 0x60, 0x00, 0x00,
   0x00, 0x80, 0x01, 0x30, 0x00, 0x00, 0x00, 0x20, 0x18, 0x00, 0x80, 0x01,
   0x00, 0x01, 0x00, 0x00, 0x03, 0x90, 0x83, 0x15, 0x00, 0x00, 0x00, 0x80,
   0x60, 0xc0, 0xc1, 0x31, 0x80, 0x01, 0xf0, 0x03, 0x00, 0x00, 0x20, 0x18,
   0x70, 0x80, 0x01, 0xf0, 0x71, 0x0c, 0x00, 0x03, 0x08, 0x81, 0x03, 0x00,
   0x00, 0x00, 0x00, 0x60, 0x30, 0x03, 0x2b, 0x80, 0x01, 0x30, 0x06, 0x00,
   0x00, 0x00, 0x18, 0xcc, 0x80, 0x01, 0xc8, 0xc1, 0x0a, 0x00, 0x03, 0x0c,
   0x01, 0x01, 0x00, 0x00, 0x00, 0x00, 0x30, 0x18, 0x03, 0x07, 0x80, 0x01,
   0x18, 0x06, 0x00, 0x00, 0x00, 0x0c, 0xc6, 0x80, 0x01, 0x84, 0xc0, 0x01,
   0x00, 0x03, 0x86, 0x01, 0x01, 0x00, 0x00, 0x00, 0x00, 0x10, 0x08, 0x00,
   0x02, 0xfc, 0x3f, 0x18, 0x06, 0x00, 0x00, 0x00, 0x04, 0x02, 0x80, 0x01,
   0x86, 0x80, 0x00, 0x00, 0x03, 0x86, 0x80, 0x01, 0x00, 0x00, 0x00, 0x00,
   0x08, 0x0c, 0x00, 0x02, 0xfc, 0x3f, 0x08, 0x06, 0x00, 0x00, 0x00, 0x02,
   0x03, 0x80, 0x01, 0xc3, 0x80, 0x00, 0x00, 0x03, 0xc6, 0x40, 0x03, 0x00,
   0x00, 0x00, 0x00, 0x04, 0x0c, 0x00, 0x03, 0x80, 0x01, 0x08, 0x02, 0x00,
   0x00, 0x00, 0x01, 0x03, 0x80, 0x01, 0x43, 0xc0, 0x00, 0x00, 0x03, 0xe6,
   0x4a, 0x0b, 0x00, 0x00, 0x00, 0x00, 0x82, 0x8c, 0x80, 0x06, 0x80, 0x01,
   0x0c, 0x03, 0x00, 0x00, 0x80, 0x20, 0x23, 0x80, 0x01, 0x63, 0xa0, 0x01,
   0x00, 0x03, 0xdc, 0x39, 0x06, 0x00, 0x00, 0x00, 0x00, 0xff, 0x8c, 0x90,
   0x16, 0x80, 0x01, 0x8c, 0x01, 0x00, 0x00, 0xc0, 0x3f, 0x23, 0x80, 0x01,
   0x73, 0xa5, 0x05, 0x00, 0x03, 0x00, 0x00, 0x00, 0x00, 0x00, 0x00, 0x80,
   0x7f, 0x78, 0x70, 0x0c, 0x80, 0x01, 0x7c, 0x00, 0x80, 0x01, 0xe0, 0x1f,
   0x1e, 0x80, 0x01, 0xee, 0x1c, 0x03, 0x00, 0x03, 0x00, 0x00, 0x00, 0x00,
   0x00, 0x00, 0x00, 0x00, 0x00, 0x00, 0x00, 0x00, 0x00, 0x00, 0x00, 0x80,
   0x01, 0x00, 0x00, 0x00, 0x80, 0x01, 0x00, 0x00, 0x00, 0x00, 0x03, 0x00,
   0x00, 0x00, 0x00, 0xff, 0x07, 0x00, 0x00, 0x00, 0x00, 0x00, 0x00, 0x00,
   0x00, 0x00, 0x80, 0x01, 0x00, 0x00, 0x00, 0x80, 0x01, 0x00, 0x00, 0x00,
   0x00, 0x03, 0x00, 0x00, 0x00, 0x00, 0xff, 0x07, 0x00, 0x00, 0x00, 0x00,
   0x00, 0x00, 0x00, 0x00, 0x00, 0x80, 0x01, 0x00, 0x00, 0x00, 0x80, 0x01,
   0x00, 0x00, 0x00, 0x00, 0x03, 0xfe, 0xff, 0x1f, 0x00, 0x00, 0x00, 0x80,
   0xff, 0xff, 0xff, 0xff, 0xff, 0xff, 0xff, 0x0f, 0xfc, 0x3f, 0xf0, 0xff,
   0xff, 0x81, 0x01, 0xff, 0xff, 0x0f, 0x00, 0x03, 0x00, 0x00, 0x00, 0x00,
   0x00, 0x00, 0x00, 0x00, 0x00, 0x00, 0x00, 0x00, 0x00, 0x00, 0x00, 0xfc,
   0x3f, 0x00, 0x00, 0x00, 0x80, 0x01, 0x00, 0x00, 0x00, 0x00, 0x03, 0x00,
   0x00, 0x00, 0x00, 0xff, 0x07, 0x00, 0x00, 0x00, 0x00, 0x00, 0x00, 0x00,
   0x00, 0x00, 0x80, 0x01, 0x00, 0x00, 0x00, 0x80, 0x01, 0x00, 0x00, 0x00,
   0x00, 0x03, 0x00, 0x00, 0x0e, 0x00, 0xff, 0x07, 0x00, 0x00, 0x00, 0x00,
   0x00, 0x00, 0x00, 0x00, 0x00, 0x80, 0x01, 0x00, 0x00, 0x00, 0x80, 0x01,
   0xe0, 0xe7, 0x01, 0x00, 0x03, 0x00, 0x00, 0x1b, 0x00, 0x00, 0x00, 0x00,
   0x00, 0x00, 0x00, 0xe0, 0xe7, 0x01, 0x00, 0x00, 0x80, 0x01, 0x00, 0x00,
   0x00, 0x80, 0x01, 0x80, 0xc1, 0x00, 0x00, 0x03, 0x00, 0x00, 0x11, 0x00,
   0x00, 0x00, 0x00, 0x00, 0x00, 0x00, 0x80, 0xc1, 0x00, 0x00, 0x00, 0x80,
   0x01, 0x00, 0xe0, 0x02, 0x80, 0x01, 0x80, 0x61, 0x00, 0x00, 0x03, 0x00,
   0x00, 0x10, 0x00, 0x00, 0x00, 0x00, 0x00, 0x00, 0x00, 0x80, 0x61, 0x00,
   0x00, 0x00, 0x00, 0x00, 0x00, 0x10, 0x03, 0x80, 0x01, 0x00, 0x33, 0x00,
   0x00, 0x03, 0x00, 0x00, 0x18, 0x00, 0x00, 0x00, 0x00, 0x00, 0x00, 0x00,
   0x00, 0x33, 0x00, 0x00, 0x00, 0x00, 0x00, 0x00, 0x08, 0x03, 0x80, 0x01,
   0x00, 0x1b, 0x00, 0x00, 0x03, 0x00, 0x00, 0x08, 0x00, 0x00, 0x00, 0x00,
   0x00, 0x00, 0xe0, 0x02, 0x1b, 0x00, 0x00, 0x00, 0x00, 0x00, 0x00, 0x0c,
   0x01, 0x80, 0x01, 0x00, 0x0e, 0x00, 0x00, 0x03, 0x00, 0x00, 0x04, 0x00,
   0x00, 0x00, 0x00, 0x00, 0x00, 0x10, 0x03, 0x0e, 0x00, 0x00, 0x00, 0x00,
   0x00, 0x00, 0x06, 0x01, 0x80, 0x01, 0x00, 0x06, 0x00, 0x00, 0x03, 0xfc,
   0x3c, 0x02, 0x00, 0x00, 0x00, 0x00, 0x00, 0x00, 0x08, 0x03, 0x06, 0x00,
   0x00, 0x00, 0x00, 0x00, 0x00, 0x86, 0x01, 0x80, 0x01, 0x00, 0x0f, 0x00,
   0x00, 0x03, 0x30, 0x18, 0x23, 0x00, 0x00, 0x00, 0x00, 0x00, 0x00, 0x0c,
   0x01, 0x0f, 0x00, 0x00, 0x00, 0x00, 0x00, 0x00, 0xc6, 0x00, 0x80, 0x01,
   0x80, 0x0d, 0x00, 0x00, 0x03, 0x30, 0x0c, 0x3f, 0x00, 0x00, 0x00, 0x00,
   0x00, 0x00, 0x06, 0x81, 0x0d, 0x00, 0x00, 0x00, 0x00, 0x00, 0x00, 0xa6,
   0x00, 0x80, 0x01, 0xc0, 0x1c, 0x00, 0x00, 0x03, 0x60, 0x06, 0x00, 0x00,
   0x00, 0x00, 0x00, 0x00, 0x00, 0x86, 0xc1, 0x1c, 0x00, 0x00, 0x00, 0x00,
   0x00, 0x00, 0xdc, 0x00, 0x80, 0x01, 0x40, 0x18, 0x00, 0x00, 0x03, 0x60,
   0x03, 0x00, 0x00, 0x00, 0x00, 0x00, 0x00, 0x00, 0xc6, 0x40, 0x18, 0x00,
   0x00, 0x00, 0x00, 0x00, 0x00, 0xc0, 0x00, 0x80, 0x01, 0x30, 0x38, 0x00,
   0x00, 0x03, 0xc0, 0x01, 0x00, 0x00, 0x00, 0x00, 0x00, 0x00, 0x00, 0xa6,
   0x30, 0x38, 0x00, 0x00, 0x00, 0x00, 0x00, 0x00, 0x40, 0x00, 0x80, 0x01,
   0x78, 0x7c, 0x00, 0x00, 0x03, 0xc0, 0x00, 0x00, 0x00, 0x00, 0x00, 0x00,
   0x00, 0x00, 0xdc, 0x78, 0x7c, 0x00, 0x00, 0x00, 0x00, 0x00, 0x00, 0x60,
   0x00, 0x80, 0x01, 0x00, 0x00, 0x00, 0x00, 0x03, 0xe0, 0x01, 0x00, 0x00,
   0x00, 0x00, 0x00, 0x00, 0x00, 0xc0, 0x00, 0x00, 0x00, 0x00, 0x00, 0x00,
   0x00, 0x00, 0xf0, 0x00, 0x80, 0x01, 0x00, 0x00, 0x00, 0x00, 0x03, 0xb0,
   0x01, 0x00, 0x00, 0x00, 0x00, 0x00, 0x00, 0x00, 0x40, 0x00, 0x00, 0x00,
   0x00, 0x00, 0x00, 0x00, 0x00, 0x00, 0x00, 0x80, 0x01, 0x00, 0x00, 0x00,
   0x00, 0x03, 0x98, 0x03, 0x00, 0x00, 0x00, 0x00, 0x00, 0x00, 0x00, 0x60,
   0x00, 0x00, 0x00, 0x00, 0x00, 0x00, 0x00, 0x00, 0x00, 0x00, 0x80, 0x01,
   0x00, 0x00, 0x00, 0x00, 0x03, 0x08, 0x03, 0x00, 0x00, 0x00, 0x00, 0x00,
   0x00, 0x00, 0xf0, 0x00, 0x00, 0x00, 0x00, 0x00, 0x00, 0x00, 0x00, 0x00,
   0x00, 0x80, 0x01, 0x00, 0x00, 0x00, 0x00, 0x03, 0x06, 0x07, 0x00, 0x00,
   0x00, 0x00, 0x00, 0x00, 0x00, 0x00, 0x00, 0x00, 0x00, 0x00, 0x00, 0x00,
   0x00, 0x00, 0x00, 0x00, 0x80, 0x01, 0x00, 0x00, 0x00, 0x00, 0x03, 0x8f,
   0x0f, 0x00, 0x00, 0x00, 0x00, 0x00, 0x00, 0x00, 0x00, 0x00, 0x00, 0x00,
   0x00, 0x00, 0x00, 0x00, 0x00, 0x00, 0x00, 0x80, 0x01, 0x00, 0x00, 0x00,
   0x00, 0x03, 0x00, 0x00, 0x00, 0x00, 0x00, 0x00, 0x00, 0x00, 0x00, 0x00,
   0x00, 0x00, 0x00, 0x00, 0x00, 0x00, 0x00, 0x00, 0x00, 0x00, 0x80, 0x01,
   0x00, 0x00, 0x00, 0x00, 0x03, 0x00, 0x00, 0x00, 0x00, 0x00, 0x00, 0x00,
   0x00, 0x00, 0x00, 0x00, 0x00, 0x00, 0x00, 0x00, 0x00, 0x00, 0x00, 0x00,
   0x00, 0x80, 0x01, 0x00, 0x00, 0x00, 0x00, 0x03, 0x00, 0x00, 0x00, 0x00,
   0x00, 0x00, 0x00, 0x00, 0x00, 0x00, 0x00, 0x00, 0x00, 0x00, 0x00, 0x00,
   0x00, 0x00, 0x00, 0x00, 0x80, 0x01, 0x00, 0x00, 0x00, 0x00, 0x01, 0x00,
   0x00, 0x00, 0x00, 0x00, 0x00, 0x00, 0x00, 0x00, 0x00, 0x00, 0x00, 0x00,
   0x00, 0x00, 0x00, 0x00, 0x00, 0x00, 0x00, 0x80, 0x00, 0x00, 0x00, 0x00,
   0x18, 0x01, 0x00, 0x00, 0x00, 0x00, 0x00, 0x00, 0x00, 0x00, 0x00, 0x00,
   0x00, 0x00, 0x00, 0x00, 0x00, 0x00, 0x00, 0x00, 0x00, 0x00, 0x8c, 0x00,
   0x00, 0x00, 0x00, 0xb8, 0x00, 0x00, 0x00, 0x00, 0x00, 0x00, 0x00, 0x00,
   0x00, 0x00, 0x00, 0x00, 0x00, 0x00, 0x00, 0x00, 0x00, 0x00, 0x00, 0x00,
   0x00, 0x5c, 0x00, 0x00, 0x00, 0x00, 0x70, 0x00, 0x00, 0x00, 0x00, 0x00,
   0x00, 0x00, 0x00, 0x00, 0x00, 0x00, 0x00, 0x00, 0x00, 0x00, 0x00, 0x00,
   0x00, 0x00, 0x00, 0x00, 0x38, 0x00, 0x00, 0x00, 0x00, 0x00, 0x00, 0x00,
   0x00, 0x00, 0x00, 0x00, 0x00, 0x00, 0x00, 0x00, 0x00, 0x00, 0x00, 0x00,
   0x00, 0x00, 0x00, 0x00, 0x00, 0x00, 0x00, 0x00, 0x00, 0x00, 0x00, 0x00,
   0x00, 0x00, 0x00, 0x00, 0x00, 0x00, 0x00, 0x00, 0x00, 0x00, 0x00, 0x00,
   0x00, 0x00, 0x00, 0x00, 0x00, 0x00, 0x00, 0x00, 0x00, 0x00, 0x00, 0x00,
   0x00, 0x00, 0x00};
