/* $XConsortium: graphic_unavailable.xbm /main/2 1996/07/24 16:15:21 drk $ */
#define default_width 241
#define default_height 78
static char default_bits[] = {
 0x00,0x00,0x00,0x00,0x00,0x00,0x00,0x00,0x00,0x00,0x00,0x00,0x00,0x00,0x00,
 0x00,0x00,0x00,0x00,0x00,0x00,0x00,0x00,0x00,0x00,0x00,0x00,0x00,0x00,0x00,
 0xfe,0x00,0x00,0x00,0x00,0x00,0x00,0x00,0x00,0x00,0x00,0x00,0x00,0x00,0x00,
 0x00,0x00,0x00,0x00,0x00,0x00,0x00,0x00,0x00,0x00,0x00,0x00,0x00,0x00,0x00,
 0x00,0xfe,0x00,0x00,0x00,0x00,0x00,0x00,0x00,0x00,0x00,0x00,0x00,0x00,0x00,
 0x00,0x00,0x00,0x00,0x00,0x00,0x00,0x00,0x00,0x00,0x00,0x00,0x00,0x00,0x00,
 0x00,0x00,0xfe,0x00,0x00,0x80,0xff,0xff,0x1f,0x00,0x00,0x00,0x00,0x00,0x00,
 0x00,0x00,0x00,0x00,0x00,0x00,0x00,0x00,0x00,0x00,0x00,0x00,0x00,0x00,0x00,
 0x00,0x00,0x00,0xfe,0x00,0x00,0xf8,0xff,0xff,0x7f,0x00,0x00,0x00,0x00,0x00,
 0x00,0x00,0x00,0x00,0x00,0x00,0x00,0x00,0x00,0x00,0x00,0x00,0x00,0x00,0x00,
 0x00,0x00,0x00,0x00,0xfe,0x00,0x00,0xfe,0xff,0xff,0xef,0x03,0x00,0x00,0x00,
 0x00,0x00,0x00,0x00,0x00,0x00,0x00,0x00,0x00,0x00,0x00,0x00,0x00,0x00,0x00,
 0x00,0x00,0x00,0x00,0x00,0xfe,0x00,0x00,0xff,0x3f,0x7f,0x46,0x0f,0x00,0x00,
 0x00,0x00,0x00,0x00,0x00,0x00,0x00,0x00,0x00,0x00,0x00,0x00,0x00,0x00,0x00,
 0x00,0x00,0x00,0x00,0x00,0x00,0xfe,0x00,0xc0,0xff,0x31,0xce,0x44,0x1e,0x00,
 0x00,0x00,0x00,0x00,0x00,0x00,0x00,0x00,0x00,0x00,0x00,0x00,0x00,0x00,0x00,
 0x00,0x00,0x00,0x00,0x00,0x00,0x00,0xfe,0x00,0xe0,0x9f,0x62,0x9c,0xc4,0x1a,
 0x00,0x00,0x00,0x00,0x00,0x00,0x00,0x00,0x00,0x00,0x00,0x00,0x00,0x00,0x00,
 0x00,0x00,0x00,0x00,0x00,0x00,0x00,0x00,0xfe,0x00,0xf0,0x1f,0xc5,0x38,0x99,
 0x3a,0x00,0x00,0x00,0x00,0x00,0x00,0x00,0x00,0x00,0x00,0x00,0x00,0x00,0x00,
 0x00,0x00,0x00,0x00,0x00,0x00,0x00,0x00,0x00,0xfe,0x00,0xf8,0x3f,0x85,0x30,
 0xb9,0xf6,0x00,0x00,0x00,0x00,0x00,0x00,0x00,0x00,0x00,0x00,0x00,0x00,0x00,
 0x00,0x00,0x00,0x00,0x00,0x00,0x00,0x00,0x00,0x00,0xfe,0x00,0xfc,0x7f,0x8f,
 0x34,0xfa,0xf6,0x01,0x00,0x00,0x00,0x00,0xe0,0x0f,0x03,0x00,0x00,0x00,0x00,
 0x00,0x00,0x00,0x00,0x70,0x00,0x00,0x00,0x00,0x00,0x00,0xfe,0x00,0xfe,0xff,
 0x9f,0xf5,0xfa,0xff,0x07,0x00,0x00,0x00,0x00,0xf8,0x3f,0x03,0x00,0x00,0x00,
 0x00,0x00,0x00,0x00,0x00,0xf8,0x00,0x00,0x00,0x00,0x00,0x00,0xfe,0x00,0xfe,
 0xff,0xff,0xfd,0xfe,0xff,0x0f,0x00,0x00,0x00,0x00,0x1c,0xfc,0x03,0x00,0x00,
 0x00,0x00,0x00,0x00,0x00,0x00,0xf8,0x00,0x00,0x00,0x00,0x00,0x00,0xfe,0x00,
 0xff,0xff,0xff,0xff,0xfe,0xe3,0x1f,0x00,0x00,0x00,0x00,0x06,0xf0,0x03,0x00,
 0x00,0x00,0x00,0x00,0x00,0x00,0x00,0xf8,0x00,0x00,0x00,0x00,0x00,0x00,0xfe,
 0x00,0xff,0xff,0xff,0xff,0xfe,0xe0,0x1f,0x00,0x00,0x00,0x00,0x03,0xe0,0x03,
 0x00,0x00,0x00,0x00,0x00,0x00,0x00,0x00,0xf8,0x00,0x00,0x00,0x00,0x00,0x00,
 0xfe,0x00,0xff,0xff,0xff,0xff,0x1f,0xe0,0x3f,0x00,0x00,0x00,0x00,0x03,0xc0,
 0x03,0x00,0x00,0x00,0x00,0x00,0x00,0x00,0x00,0xf8,0x00,0x00,0x00,0x00,0x00,
 0x00,0xfe,0x00,0xff,0xff,0xff,0xff,0x00,0xe0,0x3f,0x00,0x00,0x00,0x00,0x03,
 0x80,0x03,0x00,0x00,0x00,0x00,0x00,0x00,0x00,0x00,0xf0,0x00,0x00,0x00,0x00,
 0x00,0x00,0xfe,0x80,0xff,0x01,0xe0,0x1f,0x00,0xc0,0x3f,0x00,0x00,0x00,0x00,
 0x03,0x80,0x03,0x00,0x00,0x00,0x00,0x00,0x00,0x00,0x00,0xf0,0x00,0x00,0x00,
 0x00,0x00,0x00,0xfe,0x80,0xff,0x00,0x00,0x00,0x00,0xc0,0x1f,0x00,0x00,0x00,
 0x00,0x07,0x00,0x03,0x00,0x00,0x00,0x00,0x00,0x00,0x00,0x00,0xf0,0x00,0x00,
 0x00,0x00,0x00,0x00,0xfe,0x80,0xff,0x00,0x00,0x00,0x00,0xc0,0x1f,0x00,0x00,
 0x00,0x00,0x1f,0x00,0x03,0xfc,0xc0,0x8f,0xcf,0x8f,0xcf,0x7f,0xfc,0x71,0x00,
 0x00,0x00,0x00,0x00,0x00,0xfe,0x80,0xff,0x00,0x00,0x00,0x00,0xd0,0x1f,0x00,
 0x00,0x00,0x00,0xfe,0x01,0x00,0xff,0xc3,0xcf,0xdf,0xcf,0xdf,0x7f,0xfc,0x71,
 0x00,0x00,0x00,0x00,0x00,0x00,0xfe,0x80,0xff,0x00,0x00,0x00,0x00,0x90,0x1f,
 0x00,0x00,0x00,0x00,0xfc,0x3f,0x80,0x87,0x07,0xee,0x1e,0xee,0x1e,0x1f,0x70,
 0x60,0x00,0x00,0x00,0x00,0x00,0x00,0xfe,0x80,0xff,0x00,0x00,0x00,0x00,0x90,
 0x1f,0x00,0x00,0x00,0x00,0xf8,0xff,0xc0,0x03,0x0f,0x7e,0x1e,0x7e,0x1e,0x1e,
 0x70,0x60,0x00,0x00,0x00,0x00,0x00,0x00,0xfe,0x80,0xff,0x00,0x00,0x00,0x00,
 0x98,0x1f,0x00,0x00,0x00,0x00,0xe0,0xff,0xc1,0x03,0x0f,0x3e,0x0c,0x3e,0x0c,
 0x1c,0x30,0x60,0x00,0x00,0x00,0x00,0x00,0x00,0xfe,0x80,0xff,0x00,0x00,0x00,
 0x00,0x9c,0x1f,0x00,0x00,0x00,0x00,0x00,0xfe,0xe3,0x01,0x1e,0x1e,0x00,0x1e,
 0x00,0x1c,0x30,0x60,0x00,0x00,0x00,0x00,0x00,0x00,0xfe,0x80,0xff,0x00,0x00,
 0x00,0x00,0x98,0x1f,0x00,0x00,0x00,0x80,0x01,0xe0,0xe7,0x01,0x1e,0x1e,0x00,
 0x1e,0x00,0x38,0x18,0x60,0x00,0x00,0x00,0x00,0x00,0x00,0xfe,0x80,0xff,0x00,
 0x00,0x00,0x00,0x98,0x1f,0x00,0x00,0x00,0x80,0x01,0x00,0xe7,0x01,0x1e,0x1e,
 0x00,0x1e,0x00,0x38,0x18,0x60,0x00,0x00,0x00,0x00,0x00,0x00,0xfe,0x80,0xff,
 0x00,0x00,0x00,0x00,0x98,0x1f,0x00,0x00,0x00,0x80,0x03,0x00,0xe6,0x01,0x1e,
 0x0e,0x00,0x0e,0x00,0x70,0x0c,0x60,0x00,0x00,0x00,0x00,0x00,0x00,0xfe,0x00,
 0xff,0x00,0x00,0x00,0xe0,0xd9,0x1f,0x00,0x00,0x00,0x80,0x03,0x00,0xe6,0x01,
 0x1e,0x0e,0x00,0x0e,0x00,0x70,0x0c,0x60,0x00,0x00,0x00,0x00,0x00,0x00,0xfe,
 0x80,0xfe,0xfe,0x03,0x00,0xfc,0xdf,0x1f,0x00,0x00,0x00,0x80,0x07,0x00,0xe6,
 0x01,0x1e,0x0e,0x00,0x0e,0x00,0xf0,0x06,0x00,0x00,0x00,0x00,0x00,0x00,0x00,
 0xfe,0xc0,0x7d,0xfe,0x07,0x00,0xfe,0xbf,0x1f,0x00,0x00,0x00,0x80,0x07,0x00,
 0xe6,0x01,0x1e,0x0e,0x00,0x0e,0x00,0xe0,0x06,0x00,0x00,0x00,0x00,0x00,0x00,
 0x00,0xfe,0xc0,0x73,0x00,0x0e,0x80,0x07,0xbc,0x1f,0x00,0x00,0x00,0x80,0x0f,
 0x00,0xc3,0x03,0x0f,0x0e,0x00,0x0e,0x00,0xe0,0x07,0xf0,0x00,0x00,0x00,0x00,
 0x00,0x00,0xfe,0xc0,0x7f,0xf8,0x1e,0xc0,0xff,0xb8,0x1f,0x00,0x00,0x00,0x80,
 0x1f,0x80,0xc3,0x03,0x0f,0x0e,0x00,0x0e,0x00,0xc0,0x03,0xf8,0x01,0x00,0x00,
 0x00,0x00,0x00,0xfe,0x80,0x77,0x0e,0x7e,0xe0,0x87,0x73,0x1f,0x00,0x00,0x00,
 0x80,0x7b,0xc0,0x81,0x87,0x07,0x1f,0x00,0x1f,0x00,0xc0,0x03,0xf8,0x01,0x00,
 0x00,0x00,0x00,0x00,0xfe,0x80,0x07,0xff,0x7d,0xf0,0xff,0x23,0x1f,0x00,0x00,
 0x00,0x80,0xf1,0xff,0x00,0xff,0xc3,0x7f,0xc0,0x7f,0x00,0x80,0x01,0xf8,0x01,
 0x00,0x00,0x00,0x00,0x00,0xfe,0x80,0x07,0xa7,0x79,0xf8,0x29,0x03,0x0f,0x00,
 0x00,0x00,0x80,0xc1,0x3f,0x00,0xfc,0xc0,0x7f,0xc0,0x7f,0x00,0x80,0x01,0xf0,
 0x00,0x00,0x00,0x00,0x00,0x00,0xfe,0x80,0x07,0xe2,0x7e,0x00,0x3b,0x00,0x0f,
 0x00,0x00,0x00,0x00,0x00,0x00,0x00,0x00,0x00,0x00,0x00,0x00,0x00,0xc0,0x00,
 0x00,0x00,0x00,0x00,0x00,0x00,0x00,0xfe,0x80,0x07,0x00,0x6f,0x00,0x3f,0x07,
 0x0f,0x00,0x00,0x00,0x00,0x00,0x00,0x00,0x00,0x00,0x00,0x00,0x00,0x00,0xc0,
 0x00,0x00,0x00,0x00,0x00,0x00,0x00,0x00,0xfe,0x00,0x0f,0xdc,0x47,0x00,0xfc,
 0x01,0x0f,0x00,0x00,0x00,0x00,0x00,0x00,0x00,0x00,0x00,0x00,0x00,0x00,0x80,
 0x63,0x00,0x00,0x00,0x00,0x00,0x00,0x00,0x00,0xfe,0x00,0x0f,0xf0,0x61,0x00,
 0x70,0x00,0x0b,0x00,0x00,0x00,0x00,0x00,0x00,0x00,0x00,0x00,0x00,0x00,0x00,
 0xc0,0x73,0x00,0x00,0x00,0x00,0x00,0x00,0x00,0x00,0xfe,0x00,0x0b,0xc0,0x20,
 0x00,0x00,0x00,0x0d,0x00,0x00,0x00,0x00,0x00,0x00,0x00,0x00,0x00,0x00,0x00,
 0x00,0xc0,0x3b,0x00,0x00,0x00,0x00,0x00,0x00,0x00,0x00,0xfe,0x00,0x0d,0x00,
 0x20,0x00,0x00,0x00,0x09,0x00,0x00,0x00,0x00,0x00,0x00,0x00,0x00,0x00,0x00,
 0x00,0x00,0xc0,0x1f,0x00,0x00,0x00,0x00,0x00,0x00,0x00,0x00,0xfe,0x00,0x4d,
 0x00,0x30,0x00,0x00,0x80,0x09,0x00,0x00,0x00,0x00,0x00,0x00,0x00,0x00,0x00,
 0x00,0x00,0x00,0x80,0x0f,0x00,0x00,0x00,0x00,0x00,0x00,0x00,0x00,0xfe,0x00,
 0x49,0x00,0x38,0x00,0x00,0x00,0x0f,0x00,0x00,0x00,0x00,0x00,0x00,0x00,0x00,
 0x00,0x00,0x00,0x00,0x00,0x00,0x00,0x00,0x00,0x00,0x00,0x00,0x00,0x00,0xfe,
 0x00,0xce,0x00,0x3a,0x00,0x00,0xa0,0x06,0x00,0x00,0x00,0x00,0x00,0x00,0x00,
 0x00,0x00,0x00,0x00,0x00,0x00,0x00,0x00,0x00,0x00,0x00,0x00,0x00,0x00,0x00,
 0xfe,0x00,0xcc,0x00,0x3d,0x80,0x0e,0xb0,0x00,0x00,0x00,0x00,0x00,0x00,0x00,
 0x00,0x00,0x00,0x00,0x00,0x00,0x00,0x00,0x00,0x00,0x00,0x00,0x00,0x00,0x00,
 0x00,0xfe,0x00,0xd0,0xc1,0x3c,0xe0,0x1c,0xb8,0x00,0x00,0x00,0x00,0x00,0x00,
 0x00,0x00,0x00,0x00,0x00,0x00,0x00,0x00,0x00,0x00,0x00,0x00,0x00,0x00,0x00,
 0x00,0x00,0xfe,0x00,0xd0,0x61,0x7e,0x78,0x78,0xbc,0x00,0x00,0x00,0x00,0x00,
 0x00,0x00,0x00,0x00,0x00,0x00,0x00,0x00,0x00,0x00,0x00,0x00,0x00,0x00,0x00,
 0x00,0x00,0x00,0xfe,0x00,0xf0,0x3f,0xfe,0x3f,0xf0,0xbf,0x00,0x00,0x00,0x00,
 0x00,0x00,0x00,0x00,0x00,0x00,0x00,0x00,0x00,0x00,0x00,0x00,0x00,0x00,0x00,
 0x00,0x00,0x00,0x00,0xfe,0x00,0xe0,0x8f,0xff,0x0f,0xe0,0xbf,0x00,0x00,0x00,
 0x00,0x00,0x00,0x00,0x00,0x00,0x00,0x00,0x00,0x00,0x00,0x00,0x00,0x00,0x00,
 0x00,0x00,0x00,0x00,0x00,0xfe,0x00,0xe0,0xf7,0xff,0x07,0xfe,0xff,0x00,0x00,
 0x00,0x00,0x00,0x00,0x00,0x00,0x00,0x00,0x00,0x00,0x00,0x00,0x00,0x00,0x00,
 0x00,0x00,0x00,0x00,0x00,0x00,0xfe,0x00,0xe0,0xe6,0x7f,0xe0,0x3f,0x78,0x00,
 0x00,0x00,0x00,0x00,0x00,0x00,0x00,0x00,0x00,0x00,0x00,0x00,0x00,0x00,0x00,
 0x00,0x00,0x00,0x00,0x00,0x00,0x00,0xfe,0x00,0xc0,0xc4,0xc3,0x3f,0x0c,0x38,
 0x00,0x00,0x00,0x00,0x00,0x00,0x00,0x00,0x00,0x00,0x00,0x00,0x00,0x00,0x00,
 0x00,0x00,0x00,0x00,0x00,0x00,0x00,0x00,0xfe,0x00,0xc0,0xc4,0x07,0x00,0x06,
 0x3c,0x00,0x00,0x00,0x00,0x00,0x00,0x00,0x00,0x00,0x00,0x00,0x00,0x00,0x00,
 0x00,0x00,0x00,0x00,0x00,0x00,0x00,0x00,0x00,0xfe,0x00,0x80,0xc4,0xdf,0xff,
 0x03,0x1c,0x00,0x00,0xe0,0x03,0x00,0x00,0x00,0x06,0x18,0x00,0xc0,0x80,0x01,
 0x00,0x00,0x00,0x00,0x66,0x00,0x0c,0x60,0x00,0x00,0xfe,0x00,0x80,0x8d,0x07,
 0x80,0x01,0x1e,0x00,0x00,0xf8,0x0f,0x00,0x00,0x00,0x06,0x18,0x00,0xc0,0x80,
 0x01,0x00,0x00,0x00,0x00,0x66,0x00,0x0c,0x60,0x00,0x00,0xfe,0x00,0x80,0x0d,
 0xbf,0xff,0x00,0x0e,0x00,0x00,0x1c,0x1c,0x00,0x00,0x00,0x06,0x00,0x00,0xc0,
 0x80,0x01,0x00,0x00,0x00,0x00,0x60,0x00,0x0c,0x60,0x00,0x00,0xfe,0x00,0x00,
 0x09,0xff,0x3f,0x00,0x0f,0x00,0x00,0x0c,0x18,0x00,0x00,0x00,0x06,0x00,0x00,
 0xc0,0x80,0x01,0x00,0x00,0x00,0x00,0x60,0x00,0x0c,0x60,0x00,0x00,0xfe,0x00,
 0x00,0x9b,0x7f,0x00,0x00,0x07,0x00,0x00,0x0e,0x98,0xcd,0xc7,0x1e,0xe6,0x18,
 0x3e,0xc0,0x80,0x99,0xc3,0xc7,0x30,0x3e,0x66,0x7c,0xec,0x61,0x78,0x00,0xfe,
 0x00,0x00,0xd2,0xfb,0xff,0x80,0x03,0x00,0x00,0x06,0x80,0xed,0xce,0x3f,0xf6,
 0x19,0x7f,0xc0,0x80,0xd9,0xe7,0xce,0x30,0x77,0x66,0xee,0xfc,0x63,0xfc,0x00,
 0xfe,0x00,0x00,0xe6,0xf9,0x7f,0x80,0x03,0x00,0x00,0x06,0x80,0x63,0xcc,0x31,
 0x8e,0x19,0x63,0xc0,0x80,0x39,0x66,0xcc,0x30,0x63,0x66,0xc6,0x1c,0x63,0x86,
 0x01,0xfe,0x00,0x07,0xf4,0xf8,0x00,0xc0,0x01,0x00,0x00,0x06,0x9f,0x01,0xce,
 0x60,0x86,0x99,0x01,0xc0,0x80,0x19,0x06,0x8e,0x19,0x70,0x66,0xe0,0x0c,0x66,
 0x86,0x01,0xfe,0xc0,0x18,0xf8,0x3c,0x00,0xe0,0x00,0x00,0x00,0x06,0x9f,0xc1,
 0xcf,0x60,0x86,0x99,0x01,0xc0,0x80,0x19,0xc6,0x8f,0x19,0x7e,0x66,0xfc,0x0c,
 0x66,0xfe,0x01,0xfe,0x20,0x33,0x7e,0x1c,0x00,0xe0,0x00,0x00,0x00,0x0e,0x98,
 0xe1,0xcc,0x60,0x86,0x99,0x01,0xc0,0x80,0x19,0xe6,0x8c,0x19,0x67,0x66,0xce,
 0x0c,0x66,0x06,0x00,0xfe,0xd0,0x33,0x3f,0x1e,0x00,0x70,0x00,0x00,0x00,0x0c,
 0x98,0x61,0xcc,0x60,0x86,0x99,0x01,0xc0,0x80,0x19,0x66,0x0c,0x09,0x63,0x66,
 0xc6,0x0c,0x66,0x06,0x00,0xfe,0xc8,0xb9,0xdf,0x1f,0x00,0x38,0x00,0x00,0x00,
 0x1c,0x9c,0x61,0xcc,0x31,0x86,0x19,0x63,0x80,0xc1,0x18,0x66,0x0c,0x0f,0x63,
 0x66,0xc6,0x1c,0x63,0x8e,0x01,0xfe,0x08,0xfc,0x8f,0x1f,0x00,0x1c,0x00,0x00,
 0x00,0xf8,0x9f,0xe1,0xce,0x3f,0x86,0x19,0x7f,0x80,0xff,0x18,0xe6,0x0e,0x06,
 0x77,0x66,0xee,0xfc,0x63,0xfc,0x19,0xfe,0xc8,0xf8,0x07,0xff,0x3f,0x0e,0x00,
 0x00,0x00,0xe0,0x9b,0xc1,0xcd,0x1e,0x86,0x19,0x3e,0x00,0x3e,0x18,0xc6,0x0d,
 0x06,0x6e,0x66,0xdc,0xec,0x61,0x78,0x18,0xfe,0xf8,0xf8,0x03,0xfe,0xff,0x07,
 0x00,0x00,0x00,0x00,0x00,0x00,0xc0,0x00,0x00,0x00,0x00,0x00,0x00,0x00,0x00,
 0x00,0x00,0x00,0x00,0x00,0x00,0x00,0x00,0x00,0xfe,0xf8,0xf1,0x01,0x00,0xf8,
 0x01,0x00,0x00,0x00,0x00,0x00,0x00,0xc0,0x00,0x00,0x00,0x00,0x00,0x00,0x00,
 0x00,0x00,0x00,0x00,0x00,0x00,0x00,0x00,0x00,0x00,0xfe,0xf0,0xf1,0x00,0x00,
 0x00,0x00,0x00,0x00,0x00,0x00,0x00,0x00,0xc0,0x00,0x00,0x00,0x00,0x00,0x00,
 0x00,0x00,0x00,0x00,0x00,0x00,0x00,0x00,0x00,0x00,0x00,0xfe,0xf0,0x73,0x00,
 0x00,0x00,0x00,0x00,0x00,0x00,0x00,0x00,0x00,0xc0,0x00,0x00,0x00,0x00,0x00,
 0x00,0x00,0x00,0x00,0x00,0x00,0x00,0x00,0x00,0x00,0x00,0x00,0xfe,0xe0,0x73,
 0x00,0x00,0x00,0x00,0x00,0x00,0x00,0x00,0x00,0x00,0x00,0x00,0x00,0x00,0x00,
 0x00,0x00,0x00,0x00,0x00,0x00,0x00,0x00,0x00,0x00,0x00,0x00,0x00,0xfe,0xc0,
 0x3f,0x00,0x00,0x00,0x00,0x00,0x00,0x00,0x00,0x00,0x00,0x00,0x00,0x00,0x00,
 0x00,0x00,0x00,0x00,0x00,0x00,0x00,0x00,0x00,0x00,0x00,0x00,0x00,0x00,0xfe,
 0x80,0x1f,0x00,0x00,0x00,0x00,0x00,0x00,0x00,0x00,0x00,0x00,0x00,0x00,0x00,
 0x00,0x00,0x00,0x00,0x00,0x00,0x00,0x00,0x00,0x00,0x00,0x00,0x00,0x00,0x00,
 0xfe,0x00,0x00,0x00,0x00,0x00,0x00,0x00,0x00,0x00,0x00,0x00,0x00,0x00,0x00,
 0x00,0x00,0x00,0x00,0x00,0x00,0x00,0x00,0x00,0x00,0x00,0x00,0x00,0x00,0x00,
 0x00,0xfe,0x00,0x00,0x00,0x00,0x00,0x00,0x00,0x00,0x00,0x00,0x00,0x00,0x00,
 0x00,0x00,0x00,0x00,0x00,0x00,0x00,0x00,0x00,0x00,0x00,0x00,0x00,0x00,0x00,
 0x00,0x00,0xfe};
