/* XPM */
/* $XConsortium: graphic_unavailable.xpm /main/2 1996/07/24 16:07:25 drk $ */
static char const* graphic_unavailable_data[] = {
/* width height ncolors chars_per_pixel */
"173 28 2 1",
/* colors */
"` c black",
"a c white",
/* pixels */
"aaaaaaaaaaaaaaaaaaaaaaaaaaaaaaaaaaaaaaaaaaaaaaaaaaaaaaaaaaaaaaaaaaaaaaaaaaaaaaaaaaaaaaaaaaaaaaaaaaaaaaaaaaaaaaaaaaaaaaaaaaaaaaaaaaaaaaaaaaaaaaaaaaaaaaaaaaaaaaaaaaaaaaaaaaaaa",
"aaaaaaaaaaaaaaaaaaaaaaaaaaaaaaaaaaaaaaaaaaaaaaaaaaaaaaaaaaaaaaaaaaaaaaaaaaaaaaaaaaaaaaaaaaaaaaaaaaaaaaaaaaaaaaaaaaaaaaaaaaaaaaaaaaaaaaaaaaaaaaaaaaaaaaaaaaaaaaaaaaaaaaaaaaaaa",
"aaaaaaaaaaaaaaaaaaaaaaaaaaaaaaaaaaaaaaaaaaaaaaaaaaaaaaaaaaaaaaaaaaaaaaaaaaaaaaaaaaaaaaaaaaaaaaaaaaaaaaaaaaaaaaaaaaaaaaaaaaaaaaaaaaaaaaaaaaaaaaaaaaaaaaaaaaaaaaaaaaaaaaaaaaaaa",
"aaaaaaaaaaaaaaaaaaaaaaaaaaaaaaaaaaaaaaaaaaaaaaaaaaaaaaaaaaaaaaaaaaaaaaaaaaaaaaaaaaaaaaaaaaaaaaaaaaaaaaaaaaaaaaaaaaaaaaaaaaaaaaaaaaaaaaaaaaaaaaaaaaaaaaaaaaaaaaaaaaaaaaaaaaaaa",
"aaaaaaaaaaaaaaaaaaaaaaaaaaaaaaaaaaaaaaaaaaaaaaaaaaaaaaaaaaaaaaaaaaaaaaaaaaaaaaaaaaaaaaaaaaaaaaaaaaaaaaaaaaaaaaaaaaaaaaaaaaaaaaaaaaaaaaaaaaaaaaaaaaaaaaaaaaaaaaaaaaaaaaaaaaaaa",
"aaaaaaaaaaaaaaaaaaaaaaaaaaaaaaaaaaaaaaaaaaaaaaaaaaaaaaaaaaaaaaaaaaaaaaaaaaaaaaaaaaaaaaaaaaaaaaaaaaaaaaaaaaaaaaaaaaaaaaaaaaaaaaaaaaaaaaaaaaaaaaaaaaaaaaaaaaaaaaaaaaaaaaaaaaaaa",
"aaaaaaaaaaaaaaaaaaaaaaaaaaaaaaaaaaaaaaaaaaaaaaaaaaaaaaaaaaaaaaaaaaaaaaaaaaaaaaaaaaaaaaaaaaaaaaaaaaaaaaaaaaaaaaaaaaaaaaaaaaaaaaaaaaaaaaaaaaaaaaaaaaaaaaaaaaaaaaaaaaaaaaaaaaaaa",
"aaaaaaaaaaa`````aaaaaaaaaaaaaaaaaaaaaaaaaaaaaaa``aaaaaaaa``aaaaaaaaaaaaaaaaa``aaaaaaa``aaaaaaaaaaaaaaaaaaaaaaaaaaaaaaaaaaaaaaaa``aa``aaaaaaaaaaa``aaaaaaaaa``aaaaaaaaaaaaaaaa",
"aaaaaaaaa`````````aaaaaaaaaaaaaaaaaaaaaaaaaaaaa``aaaaaaaa``aaaaaaaaaaaaaaaaa``aaaaaaa``aaaaaaaaaaaaaaaaaaaaaaaaaaaaaaaaaaaaaaaa``aa``aaaaaaaaaaa``aaaaaaaaa``aaaaaaaaaaaaaaaa",
"aaaaaaaa```aaaaa```aaaaaaaaaaaaaaaaaaaaaaaaaaaa``aaaaaaaaaaaaaaaaaaaaaaaaaaa``aaaaaaa``aaaaaaaaaaaaaaaaaaaaaaaaaaaaaaaaaaaaaaaaaaaa``aaaaaaaaaaa``aaaaaaaaa``aaaaaaaaaaaaaaaa",
"aaaaaaaa``aaaaaaa``aaaaaaaaaaaaaaaaaaaaaaaaaaaa``aaaaaaaaaaaaaaaaaaaaaaaaaaa``aaaaaaa``aaaaaaaaaaaaaaaaaaaaaaaaaaaaaaaaaaaaaaaaaaaa``aaaaaaaaaaa``aaaaaaaaa``aaaaaaaaaaaaaaaa",
"aaaaaaa```aaaaaaa``aa``a``aa`````aaa``a````aaaa``aa```aaa``aaaa`````aaaaaaaa``aaaaaaa``aa``aa```aaaa`````aaa``aaaa``aaa`````aaa``aa``aaa`````aaa``a````aaaa``aaaa````aaaaaaaa",
"aaaaaaa``aaaaaaaaaaaa``a``a```a```aa````````aaa``a`````aa``aaa```````aaaaaaa``aaaaaaa``aa``a`````aa```a```aa``aaaa``aa```a```aa``aa``aa```a```aa````````aaa``aaa``````aaaaaaa",
"aaaaaaa``aaaaaaaaaaaa```aaa``aaa``aa```aaa``aaa```aaa``aa``aaa``aaa``aaaaaaa``aaaaaaa``aa```aaa``aa``aaa``aa``aaaa``aa``aaa``aa``aa``aa``aaa``aa```aaa``aaa``aa``aaaa``aaaaaa",
"aaaaaaa``aaaaa`````aa``aaaaaaaa```aa``aaaaa``aa``aaaa``aa``aa``aaaaaaaaaaaaa``aaaaaaa``aa``aaaa``aaaaaa```aaa``aa``aaaaaaa```aa``aa``aaaaaa```aa``aaaaa``aa``aa``aaaa``aaaaaa",
"aaaaaaa``aaaaa`````aa``aaaaa``````aa``aaaaa``aa``aaaa``aa``aa``aaaaaaaaaaaaa``aaaaaaa``aa``aaaa``aaa``````aaa``aa``aaaa``````aa``aa``aaa``````aa``aaaaa``aa``aa````````aaaaaa",
"aaaaaaa```aaaaaaa``aa``aaaa```aa``aa``aaaaa``aa``aaaa``aa``aa``aaaaaaaaaaaaa``aaaaaaa``aa``aaaa``aa```aa``aaa``aa``aaa```aa``aa``aa``aa```aa``aa``aaaaa``aa``aa``aaaaaaaaaaaa",
"aaaaaaaa``aaaaaaa``aa``aaaa``aaa``aa``aaaaa``aa``aaaa``aa``aa``aaaaaaaaaaaaa``aaaaaaa``aa``aaaa``aa``aaa``aaaa`aa`aaaa``aaa``aa``aa``aa``aaa``aa``aaaaa``aa``aa``aaaaaaaaaaaa",
"aaaaaaaa```aaaaa```aa``aaaa``aaa``aa```aaa``aaa``aaaa``aa``aaa``aaa``aaaaaaaa``aaaaa``aaa``aaaa``aa``aaa``aaaa````aaaa``aaa``aa``aa``aa``aaa``aa```aaa``aaa``aa```aaa``aaaaaa",
"aaaaaaaaa``````````aa``aaaa```a```aa````````aaa``aaaa``aa``aaa```````aaaaaaaa`````````aaa``aaaa``aa```a```aaaaa``aaaaa```a```aa``aa``aa```a```aa````````aaa``aaa```````aa``aa",
"aaaaaaaaaaa`````a``aa``aaaaa```a``aa``a````aaaa``aaaa``aa``aaaa`````aaaaaaaaaaa`````aaaaa``aaaa``aaa```a``aaaaa``aaaaaa```a``aa``aa``aaa```a``aa``a````aaaa``aaaa````aaaa``aa",
"aaaaaaaaaaaaaaaaaaaaaaaaaaaaaaaaaaaa``aaaaaaaaaaaaaaaaaaaaaaaaaaaaaaaaaaaaaaaaaaaaaaaaaaaaaaaaaaaaaaaaaaaaaaaaaaaaaaaaaaaaaaaaaaaaaaaaaaaaaaaaaaaaaaaaaaaaaaaaaaaaaaaaaaaaaaa",
"aaaaaaaaaaaaaaaaaaaaaaaaaaaaaaaaaaaa``aaaaaaaaaaaaaaaaaaaaaaaaaaaaaaaaaaaaaaaaaaaaaaaaaaaaaaaaaaaaaaaaaaaaaaaaaaaaaaaaaaaaaaaaaaaaaaaaaaaaaaaaaaaaaaaaaaaaaaaaaaaaaaaaaaaaaaa",
"aaaaaaaaaaaaaaaaaaaaaaaaaaaaaaaaaaaa``aaaaaaaaaaaaaaaaaaaaaaaaaaaaaaaaaaaaaaaaaaaaaaaaaaaaaaaaaaaaaaaaaaaaaaaaaaaaaaaaaaaaaaaaaaaaaaaaaaaaaaaaaaaaaaaaaaaaaaaaaaaaaaaaaaaaaaa",
"aaaaaaaaaaaaaaaaaaaaaaaaaaaaaaaaaaaa``aaaaaaaaaaaaaaaaaaaaaaaaaaaaaaaaaaaaaaaaaaaaaaaaaaaaaaaaaaaaaaaaaaaaaaaaaaaaaaaaaaaaaaaaaaaaaaaaaaaaaaaaaaaaaaaaaaaaaaaaaaaaaaaaaaaaaaa",
"aaaaaaaaaaaaaaaaaaaaaaaaaaaaaaaaaaaaaaaaaaaaaaaaaaaaaaaaaaaaaaaaaaaaaaaaaaaaaaaaaaaaaaaaaaaaaaaaaaaaaaaaaaaaaaaaaaaaaaaaaaaaaaaaaaaaaaaaaaaaaaaaaaaaaaaaaaaaaaaaaaaaaaaaaaaaa",
"aaaaaaaaaaaaaaaaaaaaaaaaaaaaaaaaaaaaaaaaaaaaaaaaaaaaaaaaaaaaaaaaaaaaaaaaaaaaaaaaaaaaaaaaaaaaaaaaaaaaaaaaaaaaaaaaaaaaaaaaaaaaaaaaaaaaaaaaaaaaaaaaaaaaaaaaaaaaaaaaaaaaaaaaaaaaa",
"aaaaaaaaaaaaaaaaaaaaaaaaaaaaaaaaaaaaaaaaaaaaaaaaaaaaaaaaaaaaaaaaaaaaaaaaaaaaaaaaaaaaaaaaaaaaaaaaaaaaaaaaaaaaaaaaaaaaaaaaaaaaaaaaaaaaaaaaaaaaaaaaaaaaaaaaaaaaaaaaaaaaaaaaaaaaa"
};
